<svg xmlns="http://www.w3.org/2000/svg" xmlns:xlink="http://www.w3.org/1999/xlink" width="752"
    zoomAndPan="magnify" viewBox="0 0 564 564" height="752" preserveAspectRatio="xMidYMid meet"
    version="1.0">
    <defs>
        <clipPath id="a1b7ea2462">
            <path d="M 0.5 0 L 563.5 0 L 563.5 563 L 0.5 563 Z M 0.5 0 " clip-rule="nonzero" />
        </clipPath>
        <clipPath id="479366ff8d">
            <path
                d="M 282 0 C 126.53125 0 0.5 126.03125 0.5 281.5 C 0.5 436.96875 126.53125 563 282 563 C 437.46875 563 563.5 436.96875 563.5 281.5 C 563.5 126.03125 437.46875 0 282 0 Z M 282 0 "
                clip-rule="nonzero" />
        </clipPath>
        <clipPath id="2c8d6a842d">
            <path
                d="M 194.390625 149.746094 L 263.085938 149.746094 L 263.085938 218.441406 L 194.390625 218.441406 Z M 194.390625 149.746094 "
                clip-rule="nonzero" />
        </clipPath>
        <clipPath id="6c1d3f2cab">
            <path
                d="M 228.738281 149.746094 C 209.769531 149.746094 194.390625 165.125 194.390625 184.09375 C 194.390625 203.0625 209.769531 218.441406 228.738281 218.441406 C 247.707031 218.441406 263.085938 203.0625 263.085938 184.09375 C 263.085938 165.125 247.707031 149.746094 228.738281 149.746094 Z M 228.738281 149.746094 "
                clip-rule="nonzero" />
        </clipPath>
        <clipPath id="1caf5bfeda">
            <path
                d="M 300.433594 149.746094 L 369.125 149.746094 L 369.125 218.441406 L 300.433594 218.441406 Z M 300.433594 149.746094 "
                clip-rule="nonzero" />
        </clipPath>
        <clipPath id="58d6155d84">
            <path
                d="M 334.777344 149.746094 C 315.808594 149.746094 300.433594 165.125 300.433594 184.09375 C 300.433594 203.0625 315.808594 218.441406 334.777344 218.441406 C 353.746094 218.441406 369.125 203.0625 369.125 184.09375 C 369.125 165.125 353.746094 149.746094 334.777344 149.746094 Z M 334.777344 149.746094 "
                clip-rule="nonzero" />
        </clipPath>
    </defs>
    <g clip-path="url(#a1b7ea2462)">
        <g clip-path="url(#479366ff8d)">
            <path fill="#ffffff" d="M 0.5 0 L 563.5 0 L 563.5 563 L 0.5 563 Z M 0.5 0 "
                fill-opacity="1" fill-rule="nonzero" />
        </g>
    </g>
    <g clip-path="url(#2c8d6a842d)">
        <g clip-path="url(#6c1d3f2cab)">
            <path fill="#000000"
                d="M 194.390625 149.746094 L 263.085938 149.746094 L 263.085938 218.441406 L 194.390625 218.441406 Z M 194.390625 149.746094 "
                fill-opacity="1" fill-rule="nonzero" />
        </g>
    </g>
    <g clip-path="url(#1caf5bfeda)">
        <g clip-path="url(#58d6155d84)">
            <path fill="#000000"
                d="M 300.433594 149.746094 L 369.125 149.746094 L 369.125 218.441406 L 300.433594 218.441406 Z M 300.433594 149.746094 "
                fill-opacity="1" fill-rule="nonzero" />
        </g>
    </g>
</svg>