<svg xmlns="http://www.w3.org/2000/svg" xmlns:xlink="http://www.w3.org/1999/xlink" width="752" zoomAndPan="magnify" viewBox="0 0 564 564" height="752" preserveAspectRatio="xMidYMid meet" version="1.0"><defs><clipPath id="cc2142862c"><path d="M 0.5 0 L 563.5 0 L 563.5 563 L 0.5 563 Z M 0.5 0 " clip-rule="nonzero"/></clipPath><clipPath id="b4c6c66929"><path d="M 282 0 C 126.53125 0 0.5 126.03125 0.5 281.5 C 0.5 436.96875 126.53125 563 282 563 C 437.46875 563 563.5 436.96875 563.5 281.5 C 563.5 126.03125 437.46875 0 282 0 Z M 282 0 " clip-rule="nonzero"/></clipPath><clipPath id="998f069309"><path d="M 194.632812 247.15625 L 263.324219 247.15625 L 263.324219 315.847656 L 194.632812 315.847656 Z M 194.632812 247.15625 " clip-rule="nonzero"/></clipPath><clipPath id="151a809381"><path d="M 228.980469 247.15625 C 210.011719 247.15625 194.632812 262.53125 194.632812 281.5 C 194.632812 300.46875 210.011719 315.847656 228.980469 315.847656 C 247.949219 315.847656 263.324219 300.46875 263.324219 281.5 C 263.324219 262.53125 247.949219 247.15625 228.980469 247.15625 Z M 228.980469 247.15625 " clip-rule="nonzero"/></clipPath><clipPath id="fda94c6437"><path d="M 300.675781 247.15625 L 369.367188 247.15625 L 369.367188 315.847656 L 300.675781 315.847656 Z M 300.675781 247.15625 " clip-rule="nonzero"/></clipPath><clipPath id="e95ece2c6d"><path d="M 335.019531 247.15625 C 316.050781 247.15625 300.675781 262.53125 300.675781 281.5 C 300.675781 300.46875 316.050781 315.847656 335.019531 315.847656 C 353.988281 315.847656 369.367188 300.46875 369.367188 281.5 C 369.367188 262.53125 353.988281 247.15625 335.019531 247.15625 Z M 335.019531 247.15625 " clip-rule="nonzero"/></clipPath></defs><g clip-path="url(#cc2142862c)"><g clip-path="url(#b4c6c66929)"><path fill="#ffffff" d="M 0.5 0 L 563.5 0 L 563.5 563 L 0.5 563 Z M 0.5 0 " fill-opacity="1" fill-rule="nonzero"/></g></g><g clip-path="url(#998f069309)"><g clip-path="url(#151a809381)"><path fill="#000000" d="M 194.632812 247.15625 L 263.324219 247.15625 L 263.324219 315.847656 L 194.632812 315.847656 Z M 194.632812 247.15625 " fill-opacity="1" fill-rule="nonzero"/></g></g><g clip-path="url(#fda94c6437)"><g clip-path="url(#e95ece2c6d)"><path fill="#000000" d="M 300.675781 247.15625 L 369.367188 247.15625 L 369.367188 315.847656 L 300.675781 315.847656 Z M 300.675781 247.15625 " fill-opacity="1" fill-rule="nonzero"/></g></g></svg>